<?xml version="1.0" encoding="UTF-8"?>
<svg id="_レイヤー_2" data-name="レイヤー 2" xmlns="http://www.w3.org/2000/svg" viewBox="0 0 220 212.16">
  <defs>
    <style>
      .cls-1 {
        fill: #0068b6;
      }

      .cls-2 {
        fill: #111;
      }

      .cls-3 {
        fill: #00ff81;
      }

      .cls-4 {
        fill: #fff;
      }
    </style>
  </defs>
  <g id="_レイヤー_1-2" data-name="レイヤー 1">
    <g>
      <path class="cls-3" d="M216.07,126.6c-9.36,1.25-18.22-2.07-26.37-6.4-2.1-1.03-4.18-2.07-6.25-3.05-2.04-.96-4.07-1.86-6.1-2.59-5.54-2.22-11.64-.55-16.07,3.32-9.42,9.97,2.77,19.95,8.87,28.26.83,1.94,1.24,4.02,1.17,6.1s-.62,4.15-1.73,6.09c-1.34,1.49-2.98,2.46-4.7,2.97s-3.56.6-5.44.42c-7.6-2.28-19.24-5.61-23.8,3.82-1.09,2.18-1.48,4.67-.87,7.13.14,1.97.55,3.9,1.14,5.54.46,1.74,1.04,3.44,1.7,5.13,2.6,7.68,9.25,15.44,5.92,24.31-.55,2.77-3.88,4.99-7.76,4.43-11.08-2.22-11.08-14.96-12.5-23.67-.3-1.94-.65-3.9-1.09-5.78-.44-1.88-.99-3.72-1.73-5.48-.93-3.31-2.92-5.94-5.44-7.67s-5.6-2.54-8.64-2.27c-2.63.27-4.8,1.17-6.71,2.46-6.56,4.73-10.44,17.47-17.64,15.81-7.76-2.22,2.77-16.07.96-24.81-.11-1.75-.49-3.45-1.26-5.05-.77-1.6-1.92-3.11-3.58-4.49-6.65-4.99-15.52.55-19.95,7.2-1.2,1.94-2.42,4-3.68,6.09-1.26,2.09-2.58,4.2-3.97,6.23-2.32,4.3-5.65,7.63-9.62,10.48-1.86,1.33-3.87,2.38-6.06,3.06-2.19.68-4.56.98-7.14.81-3.19-.21-5.82-1.45-6.1-4.5-1.11-8.13,5.17-13.3,12.44-17.81,1.82-1.13,3.69-2.22,5.53-3.3,3.64-2.16,7.52-4.93,10.87-7.75,1.72-1.61,3.26-3.34,4.48-5.21,2.7-3.6,3.81-8.59,2.15-13.02-.83-1.94-2.37-3.33-4.17-4.29-2.14-1.01-4.46-1.45-6.83-1.66s-4.83-.17-7.17-.21c-4.55-1.04-10.1.06-12.87-3.81-3.88-6.65,6.1-9.42,11.01-8.23,2.9.35,5.89,1.02,8.94,1.02,1.94-.28,3.74-1.11,5.13-2.36s2.36-2.91,2.63-4.85c.55-4.99-2.22-9.42-4.99-12.75-4.06-4.25-8.8-7.02-13.83-9.16-5.03-2.14-10.35-3.65-15.57-5.38s-10.34-3.69-14.97-6.71c-1.55-1.29-2.87-2.85-3.84-4.79-1.11-2.22-.55-5.54,1.11-6.65,14.41-7.2,27.71,7.2,39.97,12.78,2.73,1.08,5.21,2.6,7.77,3.92s5.19,2.42,8.23,2.7c2.49-.28,4.86-1.11,6.79-2.51,1.87-.96,3.22-2.41,3.96-4.1,2.55-7.24-3.55-13.89-8.24-18.92-1.16-1.86-2.1-3.84-2.53-6.06,0-2.22,1.12-4.45,2.83-5.02,1.91-.55,3.76-.4,5.55.1,5.38,1.5,10.48,6.17,17.13,4.93,6.65-1.66,9.97-7.76,10.53-13.85.28-5.26-.97-10.81-1.53-16.26-.18-1.82-.29-3.64-.25-5.42-.25-1.92-.05-3.92.51-5.8,1.82-6.87,10.13-13.52,16.23-7.98,6.65,6.65,4.43,16.62,2.61,24.87-.51,2.09-1.08,4.17-1.57,6.23-1.45,6.16-2.15,12.12,1.73,17.66,5.54,8.5,12.81,4.19,19-1.77,1.55-1.49,3.03-3.08,4.4-4.6,2.09-3.05,7.08-7.48,9.29-3.05,1.11,2.22.55,4.99-.69,7.31-.66,1.64-1.43,3.38-2.12,5.18-.69,1.8-1.31,3.64-1.65,5.48-.35,1.84-.42,3.66-.04,5.41.38,1.75,1.22,3.44,2.71,4.99.98,1.26,2.63,2.39,4.57,3.22,6.86,2.91,12.62,1.92,17.85-.97,1.76-.97,3.44-2.15,5.09-3.47,10.3-7.75,18.06-23.82,33.57-21.05,2.49.28,4.02,1.94,4.64,4.02s.38,4.72-.75,6.54c-2.96,6.63-8.63,11.3-15.08,14.56-1.61.81-3.28,1.54-4.96,2.18-7.68,2.62-18.76,5.95-17.65,15.92.55,8.87,5.82,13.71,12.75,16.35,2.31.88,4.8,1.51,7.37,1.96,10.36,2.75,25.88-2.79,30.3,10.76-.75,3.22-2.21,6.28-3.93,6.81Z"/>
      <g>
        <circle class="cls-4" cx="138.28" cy="144.75" r="13.58"/>
        <circle class="cls-1" cx="143.82" cy="149.74" r="5.26"/>
      </g>
      <g>
        <circle class="cls-4" cx="70.68" cy="91" r="9.7"/>
        <circle class="cls-1" cx="72.61" cy="87.4" r="4.43"/>
      </g>
      <g>
        <circle class="cls-4" cx="29.95" cy="175.51" r="5.54"/>
        <circle class="cls-1" cx="28.28" cy="173.29" r="2.22"/>
      </g>
      <g>
        <circle class="cls-4" cx="102.82" cy="15.08" r="9.14"/>
        <circle class="cls-1" cx="99.21" cy="12.03" r="3.88"/>
      </g>
      <path class="cls-4" d="M110.08,114.2c-13.59,1.44-25.73-3.05-25.73-7.7,0-.16.02-.32.04-.48h-.04s-8.6,71.71,50.94,2.53c-4.6,3.02-14.19,4.48-25.21,5.65Z"/>
      <g>
        <path class="cls-2" d="M50.06,200.97l2.62-7.63,3.61,1.39-5.17,15.83-3.77-1.48,2.71-8.12ZM60.32,197.52c.98,1.75,1.94,3.56,2.87,5.41.93,2.02,1.8,4.02,2.62,5.99l-3.69,1.48c-.77-1.8-1.56-3.66-2.38-5.58-.93-1.91-1.86-3.77-2.79-5.58l3.36-1.72ZM60.73,195.8c-.06-.66.11-1.26.49-1.8.38-.55.9-.9,1.56-1.07.82-.16,1.56-.03,2.21.41.66.44,1.04,1.04,1.15,1.8.11.77-.06,1.45-.49,2.05-.44.6-1.01.96-1.72,1.07-.77.11-1.48-.08-2.13-.57s-1.01-1.12-1.07-1.89ZM63.35,197.11c.49.05.9-.08,1.23-.41s.49-.71.49-1.15c0-.38-.16-.74-.49-1.07-.22-.22-.52-.36-.9-.41-.44-.05-.82.03-1.15.25-.33.22-.52.55-.57.98-.06.55.05.98.33,1.31.22.27.57.44,1.07.49Z"/>
        <path class="cls-2" d="M74.34,192.76l3.36.98-.57,1.31,4.18-.49c.87-.11,1.5-.14,1.89-.08.6.05,1.07.25,1.39.57.71.66.96,1.56.74,2.71-.06.44-.19.9-.41,1.39-.77,1.97-1.67,3.91-2.71,5.82l-3.53,6.48-3.61-1.39c1.48-2.51,2.57-4.48,3.28-5.91.71-1.42,1.61-3.47,2.71-6.15l-5.91.82-2.54,6.32-3.36-1.15,5.09-11.24Z"/>
        <path class="cls-2" d="M95.84,193.17c-.38,2.9-.6,5.14-.66,6.73-.06,1.26-.03,3.28.08,6.07l-3.45-.08c-.44-4.59-.25-8.91.57-12.96l3.45.25ZM101.5,192.68l3.94.25c-.49,5.3-.93,9.19-1.31,11.65-.27,1.64-.79,3.94-1.56,6.89l-3.77-.82c.6-2.3,1.09-4.48,1.48-6.56.44-2.41.85-6.21,1.23-11.4Z"/>
        <path class="cls-2" d="M117.41,194.08c-.98,3.23-1.61,5.63-1.89,7.22-.22,1.48-.27,2.57-.16,3.28.16,1.09.71,1.89,1.64,2.38,1.2.6,2.43.57,3.69-.08,1.26-.66,2.43-1.72,3.53-3.2.38-.55.85-1.34,1.39-2.38l2.95,2.46c-1.86,2.79-3.56,4.7-5.09,5.74-1.42.98-3.04,1.53-4.84,1.64-1.92.11-3.56-.33-4.92-1.31-1.48-1.15-2.24-2.82-2.3-5,0-.6.08-1.5.25-2.71.16-.98.44-2.3.82-3.94.44-1.8.87-3.5,1.31-5.09l3.61.98ZM125.12,194.65l1.56,3.69-2.05.49-1.31-3.77,1.8-.41ZM127.58,194.16l1.39,3.45-1.97.66-1.31-3.69,1.89-.41Z"/>
        <path class="cls-2" d="M136.03,202.44l-1.07-1.97,2.46-1.15,1.15,2.54,2.21-.49.16-2.62,2.79.16-.16,2.13c1.15.05,2.02.3,2.62.74.93.66,1.34,1.67,1.23,3.04-.06.66-.3,1.34-.74,2.05-.27.44-.77,1.07-1.48,1.89l-2.21-1.64c.33-.38.63-.74.9-1.07.49-.6.71-1.12.66-1.56-.06-.49-.49-.77-1.31-.82l-.16,1.8-2.54-.16.08-1.39-.98.33,2.54,6.07-2.38,1.15-2.62-6.56-2.21,1.07-1.31-2.71,2.38-.82Z"/>
        <path class="cls-2" d="M155.64,195.88l1.15-2.87,3.28.66-.82,2.05,2.87-.08-.16,2.38-3.69.33-2.62,8.7-3.12-1.07,2.05-7.14-2.05.41v-3.04l3.12-.33ZM163.68,198.42l3.45.25.16,2.95,3.53,1.23-.9,3.28-2.54-1.07c-.06,1.48-.27,2.57-.66,3.28-.55.93-1.31,1.69-2.3,2.3-.98.55-2,.82-3.04.82-1.92-.05-3.25-.85-4.02-2.38-.77-1.53-.79-2.98-.08-4.35.6-1.15,1.59-2,2.95-2.54.87-.33,2.16-.6,3.86-.82l-.41-2.95ZM164.25,204.82c-.98-.05-1.72-.03-2.21.08-.77.16-1.31.55-1.64,1.15-.22.38-.25.79-.08,1.23.22.55.57.88,1.07.98.82.22,1.53-.05,2.13-.82.44-.55.68-1.42.74-2.62ZM165.23,193.01l5.58,3.36-1.72,2.3-5.82-3.61,1.97-2.05Z"/>
        <path class="cls-2" d="M178.93,194.16c-.88,2.24-1.45,4.02-1.72,5.33-.27,1.2-.36,3.17-.25,5.91l2.13-3.61,2.79,1.8-2.38,4.51c-.49.93-.88,1.56-1.15,1.89-.44.55-.96.87-1.56.98-1.2.16-2.08-.57-2.62-2.21-.33-1.04-.52-2.41-.57-4.1-.06-2.02.08-3.96.41-5.82.27-1.42.85-3.39,1.72-5.91l3.2,1.23ZM189.43,193.42c.66,2.46,1.12,4.57,1.39,6.32.33,1.97.57,4.65.74,8.04l-3.61.08c-.11-3.28-.27-5.69-.49-7.22-.22-1.37-.71-3.53-1.48-6.48l3.45-.74Z"/>
        <path class="cls-2" d="M200.92,193.5l3.77-.33.74,2.95,6.32-.08.08,2.95-5.91.49.25,2.05c2.41.49,4.68,1.29,6.81,2.38l-1.89,3.61-4.59-2.21c.11,1.64-.08,2.84-.57,3.61-.55.87-1.42,1.53-2.62,1.97-1.37.49-2.68.6-3.94.33-1.8-.38-3.01-1.37-3.61-2.95-.27-.71-.36-1.45-.25-2.21.11-.77.46-1.53,1.07-2.3.6-.77,1.42-1.37,2.46-1.8.77-.33,1.97-.57,3.61-.74l-1.72-7.71ZM203.22,204.58c-.22-.05-.6-.08-1.15-.08-1.2,0-2.02.22-2.46.66-.44.44-.66.93-.66,1.48,0,.93.46,1.39,1.39,1.39.87,0,1.59-.27,2.13-.82.66-.66.9-1.53.74-2.62Z"/>
      </g>
      <g>
        <path class="cls-2" d="M8.35,40.66l.66-2.3-6.67.88v-4.81l8.2-.55,1.2-2.95,4.59,1.09-.98,1.97,7,.22v3.5l-8.31.22-.77,2.52h8.97l.22,3.72-9.84.11c-.44,1.24-.66,2.44-.66,3.61,0,2.48,1.09,3.72,3.28,3.72,1.68,0,3.06-.55,4.16-1.64,1.02-1.02,1.75-2.52,2.19-4.48l4.81,1.75c-.95,2.48-1.9,4.27-2.84,5.36-1.97,2.26-4.74,3.43-8.31,3.5-3.35.07-5.73-.73-7.11-2.41-.8-1.02-1.28-2.26-1.42-3.72-.07-1.17.15-2.84.66-5.03l-5.14.88.22-4.59,5.91-.55Z"/>
        <path class="cls-2" d="M36.13,43.95l-1.42-2.62,3.28-1.53,1.53,3.39,2.95-.66.22-3.5,3.72.22-.22,2.84c1.53.07,2.7.4,3.5.98,1.24.88,1.79,2.22,1.64,4.05-.07.88-.4,1.79-.98,2.73-.37.58-1.02,1.42-1.97,2.52l-2.95-2.19c.44-.51.84-.98,1.2-1.42.66-.8.95-1.49.88-2.08-.07-.66-.66-1.02-1.75-1.09l-.22,2.41-3.39-.22.11-1.86-1.31.44,3.39,8.09-3.17,1.53-3.5-8.75-2.95,1.42-1.75-3.61,3.17-1.09Z"/>
        <path class="cls-2" d="M80.54,33.99l-15.64,9.3,15.97,9.73-3.72,2.95-12.69-7.77c-.88-.51-1.79-1.09-2.73-1.75-1.09-.73-1.79-1.49-2.08-2.3-.44-1.09-.11-2.22.98-3.39.58-.66,1.6-1.38,3.06-2.19l13.34-7.77,3.5,3.17Z"/>
        <path class="cls-2" d="M92.35,40.66l.66-2.3-6.67.88v-4.81l8.2-.55,1.2-2.95,4.59,1.09-.98,1.97,7,.22v3.5l-8.31.22-.77,2.52h8.97l.22,3.72-9.84.11c-.44,1.24-.66,2.44-.66,3.61,0,2.48,1.09,3.72,3.28,3.72,1.68,0,3.06-.55,4.16-1.64,1.02-1.02,1.75-2.52,2.19-4.48l4.81,1.75c-.95,2.48-1.9,4.27-2.84,5.36-1.97,2.26-4.74,3.43-8.31,3.5-3.35.07-5.73-.73-7.11-2.41-.8-1.02-1.28-2.26-1.42-3.72-.07-1.17.15-2.84.66-5.03l-5.14.88.22-4.59,5.91-.55Z"/>
        <path class="cls-2" d="M120.13,43.95l-1.42-2.62,3.28-1.53,1.53,3.39,2.95-.66.22-3.5,3.72.22-.22,2.84c1.53.07,2.7.4,3.5.98,1.24.88,1.79,2.22,1.64,4.05-.07.88-.4,1.79-.98,2.73-.37.58-1.02,1.42-1.97,2.52l-2.95-2.19c.44-.51.84-.98,1.2-1.42.66-.8.95-1.49.88-2.08-.07-.66-.66-1.02-1.75-1.09l-.22,2.41-3.39-.22.11-1.86-1.31.44,3.39,8.09-3.17,1.53-3.5-8.75-2.95,1.42-1.75-3.61,3.17-1.09Z"/>
        <path class="cls-2" d="M164.54,33.99l-15.64,9.3,15.97,9.73-3.72,2.95-12.69-7.77c-.88-.51-1.79-1.09-2.73-1.75-1.09-.73-1.79-1.49-2.08-2.3-.44-1.09-.11-2.22.98-3.39.58-.66,1.6-1.38,3.06-2.19l13.34-7.77,3.5,3.17Z"/>
        <path class="cls-2" d="M172.08,38.48l-3.28.33v-3.83l3.5-.11.22-4.59h4.48l-.11,4.48h1.75l-.22,3.61-1.97-.11v.22l3.06,2.19v.33l-.55.77,5.69-.11.11-.98-4.48.33.22-3.06,4.27-.11.11-1.09-6.02.66v-3.5l2.73-.11c-.51-1.09-.48-2,.11-2.73.44-.51.95-.8,1.53-.88.51-.07,1.02.11,1.53.55.8.73,1.02,1.75.66,3.06h1.53l1.86-3.61,4.7.44-2.08,3.06,3.94-.11-.33,3.06h-6.02l-.11,1.2,4.16-.22v2.95h-4.27v.98l6.78-.22.11,3.06h-2.52l2.41,2.3-3.06,3.06,3.28,3.5-3.06,2.95-4.05-4.16c.07.88.07,1.6,0,2.19-.07.8-.18,1.38-.33,1.75-.51.58-1.2.84-2.08.77l-2.84-.11-1.64-3.28-2.84,2.19-2.41-3.61,3.94-2.3c-1.17.07-1.97-.25-2.41-.98-.51-.88-.44-1.86.22-2.95l-.88.11.11-1.53-1.09-.77v13.23l-4.7.11.22-11.27-1.75,3.06-1.42-4.48,3.28-5.69ZM181.71,49.09l1.31-.77,1.53,2.3.11-5.8-3.5.33c.73.51,1.13,1.02,1.2,1.53.15.66-.07,1.46-.66,2.41ZM184.55,52.26v-.98l-1.42.98h1.42ZM189.8,47.12l2.41-2.73h-3.39v1.75l.98.98Z"/>
      </g>
    </g>
  </g>
</svg>